<?xml version="1.0" encoding="UTF-8" standalone="no"?>
<svg
   xmlns:dc="http://purl.org/dc/elements/1.1/"
   xmlns:cc="http://creativecommons.org/ns#"
   xmlns:rdf="http://www.w3.org/1999/02/22-rdf-syntax-ns#"
   xmlns:svg="http://www.w3.org/2000/svg"
   xmlns="http://www.w3.org/2000/svg"
   viewBox="0 0 1333.7008 667.85309"
   height="667.85309"
   width="1333.7008"
   xml:space="preserve"
   id="svg2"
   version="1.1"><metadata
     id="metadata8"><rdf:RDF><cc:Work
         rdf:about=""><dc:format>image/svg+xml</dc:format><dc:type
           rdf:resource="http://purl.org/dc/dcmitype/StillImage" /></cc:Work></rdf:RDF></metadata><defs
     id="defs6"><clipPath
       id="clipPath18"
       clipPathUnits="userSpaceOnUse"><path
         id="path16"
         d="m 643,-375.89014 c 0,0 0,243.00049 0,243.00049 0,0 10,66 -69,66 -53.70996,0 -170.63867,0 -240,0 -71,0 -67,-67 -67,-67 0,0 0,-240 0,-240 0,0 -6.00098,-69 70,-69 51.51855,0 168.18457,0 238,0 76,0 68,66.99951 68,66.99951 z" /></clipPath><linearGradient
       id="linearGradient28"
       spreadMethod="pad"
       gradientTransform="matrix(344.00003,-327,327,344.00003,283.32959,-90.33496)"
       gradientUnits="userSpaceOnUse"
       y2="0"
       x2="1"
       y1="0"
       x1="0"><stop
         id="stop24"
         offset="0"
         style="stop-opacity:1;stop-color:#ac95ff" /><stop
         id="stop26"
         offset="1"
         style="stop-opacity:1;stop-color:#b8bdff" /></linearGradient></defs><g
     transform="matrix(1.3333333,0,0,-1.3333333,0,667.85307)"
     id="g10"><g
       transform="scale(1,-1)"
       id="g12"><g
         clip-path="url(#clipPath18)"
         id="g14"><g
           id="g20"><g
             id="g22"><path
               id="path30"
               style="fill:url(#linearGradient28);stroke:none"
               d="m 643,-375.89014 c 0,0 0,243.00049 0,243.00049 0,0 10,66 -69,66 -53.70996,0 -170.63867,0 -240,0 -71,0 -67,-67 -67,-67 0,0 0,-240 0,-240 0,0 -6.00098,-69 70,-69 51.51855,0 168.18457,0 238,0 76,0 68,66.99951 68,66.99951 z" /></g></g></g></g><g
       transform="scale(1,-1)"
       id="g32"><path
         id="path34"
         style="fill:#ffffff;fill-opacity:1;fill-rule:nonzero;stroke:none"
         d="m 559.25195,-255.95947 c 0,0 9.01368,72.53369 -17.458,102.21435 -26.47168,29.68067 -48.13038,46.52637 -105.8877,20.05469 -57.75732,-26.47168 -43.31787,-128.34912 -43.31787,-128.34912 0,0 35.29541,-94.65723 32.88916,-93.85498 -2.40625,0.80224 68.98779,-7.21973 68.98779,-7.21973 0,0 40.10889,21.65869 40.10889,21.65869 0,0 12.83496,23.26319 12.83496,23.26319 0,0 4.81348,33.69189 4.81348,33.69189 0,0 7.02929,28.54102 7.02929,28.54102 z" /><path
         id="path36"
         style="fill:#dddded;fill-opacity:1;fill-rule:nonzero;stroke:none"
         d="m 520.13477,-343.86182 c 0,0 -106.27198,-31.28466 -97.44825,100.27295 0,0 -8.43847,93.05176 56.5376,119.52442 0,0 -56.95508,7.21972 -74.60303,-33.69141 -17.64795,-40.91113 -6.41748,-158.83203 -6.41748,-158.83203 0,0 24.86768,-31.28516 24.86768,-31.28516 0,0 61.76807,-15.24121 61.76807,-15.24121 0,0 35.29541,19.25244 35.29541,19.25244 z" /><path
         id="path38"
         style="fill:#001541;fill-opacity:1;fill-rule:nonzero;stroke:none"
         d="m 558.55664,-299.24707 c 0,0 31.3125,13.29639 31.3125,13.29639 0,0 -30.61719,16.09619 -30.61719,16.09619 0,0 0,14.69629 0,14.69629 0,0 -15.30859,0.6997 -15.30859,-30.79248 0,-31.49219 -21.57129,-58.08545 -45.92578,-63.68409 -24.35449,-5.59863 -60.53809,3.49854 -71.67188,27.29297 -11.13379,23.79492 -14.6123,45.48828 -2.7832,67.8833 11.8291,22.39502 25.74609,39.89014 25.74609,39.89014 0,0 10.43799,16.0957 -2.7832,24.49414 -13.22119,8.39844 -22.96289,2.09961 -27.83398,-0.69922 0,0 13.91601,74.18164 83.50097,67.88281 0,0 -71.67187,26.59278 -118.29345,-13.29687 -2.51661,-2.15332 -21.24561,-20.96973 -26.16163,-47.80176 -9.01953,-49.23242 -4.66748,-120.68603 -2.43115,-132.06445 5.47315,-30.8584 20.8003,-62.61572 70.34375,-75.5708 69.58448,-18.19531 105.07178,25.89404 110.63916,33.5918 5.56739,7.69824 22.26758,27.29248 22.26758,58.78564 z" /><path
         id="path40"
         style="fill:#001541;fill-opacity:1;fill-rule:nonzero;stroke:none"
         d="m 516.92676,-317.39014 c 0,0 -26.47217,-8.82324 -32.0874,4.81348 -5.61524,13.63672 1.60498,28.87842 12.83496,28.87842 11.22998,0 22.46045,-12.03321 14.43896,-28.07666 0,0 4.81348,-5.61524 4.81348,-5.61524 z" /><path
         id="path42"
         style="fill:#ffffff;fill-opacity:1;fill-rule:nonzero;stroke:none"
         d="m 500.08057,-307.3623 c 0,3.32226 -2.33448,6.01611 -5.21436,6.01611 -2.87939,0 -5.21387,-2.69385 -5.21387,-6.01611 0,-3.32325 2.33448,-6.01661 5.21387,-6.01661 2.87988,0 5.21436,2.69336 5.21436,6.01661 z" /></g></g></svg>